<?xml version="1.0" encoding="UTF-8"?>
<svg id="_图层_1" data-name="图层 1" xmlns="http://www.w3.org/2000/svg" viewBox="0 0 1920 1080">
  <defs>
    <style>
      .cls-1 {
        fill: #00b8fd;
      }

      .cls-2 {
        fill: #00b7fc;
      }
    </style>
  </defs>
  <path class="cls-1" d="M789.41,605.61c25.12-.17,45.42,7.19,65.06,17.27,36.48,18.72,72.85,18.64,108.81-1.5,13.64-7.64,26.66-16.46,41.7-21.37,33.58-10.96,65.32-5.98,95.78,10.81,17.35,9.56,31.5,22.77,44.07,37.86,.83,1,1.42,2.21,2.12,3.32-1.65,.91-2.78-.46-3.98-1.06-39.84-19.74-81.24-22.11-123.46-9.95-25.06,7.22-46.99,21.13-68.05,36.17-24.31,17.36-50.57,30.31-80.23,34.94-28.58,4.46-56.77,1.27-84.18-7.77-6.09-2.01-9.63-8.06-13.75-12.73-17.48-19.83-29.91-42.67-39.26-67.31-1.48-3.89-.47-5.41,3.21-6.89,17.62-7.08,35.71-11.73,52.15-11.79Z"/>
  <path class="cls-2" d="M964.51,778.76c-53.37-1.13-102.25-16.28-146.15-46.94-1.04-.73-3.1-1.25-2.62-2.54,.51-1.37,2.28-.14,3.45,.03,29.64,4.3,58.75,2.9,87.15-7.49,18.12-6.62,34.7-15.94,50.37-27.14,23.69-16.93,48.39-31.91,77.37-38.25,42.31-9.26,82.05-3.68,118.82,19.97,2.97,1.91,3.24,3.12,1.08,6-33.26,44.44-76.73,73.69-130.22,88.33-19.41,5.31-39.11,7.98-59.25,8.03Z"/>
  <path d="M868.22,607.49c-48.7-27.42-97.58-54.55-145.16-83.91-2.74-1.69-3.86-3.36-3.51-6.74,7.83-75.28,42.66-134.32,105.8-176.38,2.16-1.44,4.9-4.26,6.79-3.25,2.05,1.09,.69,4.83,.67,7.38-.27,35.87,3.03,71.52,6.94,107.11,3.96,36.08,8.49,72.09,13.57,108.03,2.37,16.76,5.74,33.2,16.95,46.78-.06,1.63-.75,1.92-2.04,.98Z"/>
  <path d="M846.57,362.12c.03-10.14-.73-20.3,.62-30.45,.32-2.43,.97-3.8,3.23-4.89,55.13-26.79,112.29-34.12,171.97-18.34,14.53,3.84,28.61,8.84,42.36,14.84,2.99,1.3,4.07,2.11,.48,4.41-52.79,33.81-101.96,72.7-152.56,109.57-19.68,14.34-39.05,29.08-53.65,49.02-.63,.86-1.29,2.63-2.43,1.98-.79-.44-.96-2.3-1.07-3.56-1.42-15.59-2.87-31.18-4.12-46.78-2.02-25.24-3.86-50.49-4.82-75.79Z"/>
  <path d="M1199.45,514.62c-.3,2.3,1.24,5.34-.68,6.56-1.56,.99-3.86-1.25-5.71-2.3-35.19-19.82-72.6-34.82-109.64-50.62-30.02-12.8-59.82-26.13-90.97-36.06-11.42-3.64-23.11-6.19-35.02-7.67-1.12-.14-2.84-.31-3.17-1-.64-1.34,1.19-1.65,1.98-2.22,40.7-29.24,80.54-59.7,123.08-86.32,3.02-1.89,5.12-1.76,8,.03,55.62,34.55,91.08,83.74,107.03,147.13,2.69,10.69,4.3,21.54,5.11,32.47Z"/>
  <path d="M1200.05,553.85c-1.84,34.62-11.13,67.15-26.94,97.91-1.87,3.64-2.81,4.14-5.49,.34-20.15-28.6-45.15-51.48-78.04-64.79-.62-.25-1.24-.5-1.83-.79-4.11-2.03-10.28-1.37-12.38-5.21-2.04-3.72-.95-9.1-1.41-13.74-2.46-25.03-5.28-50.01-13.15-74.06-2.32-7.11-5.28-14.01-7.92-21.01-.31-.83-1.51-1.72-.39-2.55,.38-.28,1.49,.32,2.22,.64,15.42,6.67,30.88,13.27,46.25,20.07,31.97,14.15,63.46,29.3,94.27,45.85,3.78,2.03,5.51,4.06,4.9,8.36-.42,2.94-.08,5.98-.08,8.98Z"/>
  <path d="M718.85,546.21c.31-2.13-1.33-5.91,.6-7.02,1.86-1.07,4.53,1.94,6.76,3.26,24.74,14.7,49.71,28.99,74.82,43.03,1.23,.69,3.64,1.12,3.3,2.47-.36,1.4-2.53,.45-3.87,.3-24.31-2.72-47.01,2.79-68.61,13.57-3.39,1.69-4.17,1.11-5.1-2.41-4.59-17.3-7.07-34.89-7.9-53.2Z"/>
</svg>